<svg xmlns="http://www.w3.org/2000/svg" width="805" height="600"><rect width="805" height="600" x="0" y="0" fill="#FFFFFF" id="backgorund"/><g id="viz"><clipPath id="serieClipPath"><rect x="-50" y="-10" width="805" height="600"/></clipPath><g transform="translate(0,0)"><g transform="translate(50,10)" clip-path="url(#serieClipPath)"><g id="axis"><g transform="translate(0,570)" fill="none" font-size="10" font-family="sans-serif" text-anchor="middle"><path class="domain" stroke="currentColor" d="M0.5,6V0.5H740.5V6"/><g class="tick" opacity="1" transform="translate(0.5,0)"><line stroke="currentColor" y2="6"/><text fill="currentColor" y="9" dy="0.71em">Feb 13</text></g><g class="tick" opacity="1" transform="translate(82.72222222222221,0)"><line stroke="currentColor" y2="6"/><text fill="currentColor" y="9" dy="0.71em">Feb 20</text></g><g class="tick" opacity="1" transform="translate(164.94444444444443,0)"><line stroke="currentColor" y2="6"/><text fill="currentColor" y="9" dy="0.71em">Feb 27</text></g><g class="tick" opacity="1" transform="translate(247.16666666666666,0)"><line stroke="currentColor" y2="6"/><text fill="currentColor" y="9" dy="0.71em">Mar 06</text></g><g class="tick" opacity="1" transform="translate(329.38888888888886,0)"><line stroke="currentColor" y2="6"/><text fill="currentColor" y="9" dy="0.71em">Mar 13</text></g><g class="tick" opacity="1" transform="translate(411.61111111111114,0)"><line stroke="currentColor" y2="6"/><text fill="currentColor" y="9" dy="0.71em">Mar 20</text></g><g class="tick" opacity="1" transform="translate(493.8333333333333,0)"><line stroke="currentColor" y2="6"/><text fill="currentColor" y="9" dy="0.71em">Mar 27</text></g><g class="tick" opacity="1" transform="translate(576.0555555555555,0)"><line stroke="currentColor" y2="6"/><text fill="currentColor" y="9" dy="0.71em">Apr 03</text></g><g class="tick" opacity="1" transform="translate(658.2777777777777,0)"><line stroke="currentColor" y2="6"/><text fill="currentColor" y="9" dy="0.71em">Apr 10</text></g><g class="tick" opacity="1" transform="translate(740.5,0)"><line stroke="currentColor" y2="6"/><text fill="currentColor" y="9" dy="0.71em">Apr 17</text></g><text x="740" dy="-5" text-anchor="end" style="font-family: Arial, sans-serif; font-size: 12px; fill: rgb(123, 123, 123); font-weight: bold;">日期</text></g><g transform="translate(0,0)" fill="none" font-size="10" font-family="sans-serif" text-anchor="end"><path class="domain" stroke="currentColor" d="M0.5,570.5V0.5"/><g class="tick" opacity="1" transform="translate(0,570.5)"><line stroke="currentColor" x2="-6"/><text fill="currentColor" x="-9" dy="0.32em">550</text></g><g class="tick" opacity="1" transform="translate(0,513.5)"><line stroke="currentColor" x2="-6"/><text fill="currentColor" x="-9" dy="0.32em">560</text></g><g class="tick" opacity="1" transform="translate(0,456.5)"><line stroke="currentColor" x2="-6"/><text fill="currentColor" x="-9" dy="0.32em">570</text></g><g class="tick" opacity="1" transform="translate(0,399.5)"><line stroke="currentColor" x2="-6"/><text fill="currentColor" x="-9" dy="0.32em">580</text></g><g class="tick" opacity="1" transform="translate(0,342.5)"><line stroke="currentColor" x2="-6"/><text fill="currentColor" x="-9" dy="0.32em">590</text></g><g class="tick" opacity="1" transform="translate(0,285.5)"><line stroke="currentColor" x2="-6"/><text fill="currentColor" x="-9" dy="0.32em">600</text></g><g class="tick" opacity="1" transform="translate(0,228.5)"><line stroke="currentColor" x2="-6"/><text fill="currentColor" x="-9" dy="0.32em">610</text></g><g class="tick" opacity="1" transform="translate(0,171.50000000000003)"><line stroke="currentColor" x2="-6"/><text fill="currentColor" x="-9" dy="0.32em">620</text></g><g class="tick" opacity="1" transform="translate(0,114.49999999999997)"><line stroke="currentColor" x2="-6"/><text fill="currentColor" x="-9" dy="0.32em">630</text></g><g class="tick" opacity="1" transform="translate(0,57.499999999999986)"><line stroke="currentColor" x2="-6"/><text fill="currentColor" x="-9" dy="0.32em">640</text></g><g class="tick" opacity="1" transform="translate(0,0.5)"><line stroke="currentColor" x2="-6"/><text fill="currentColor" x="-9" dy="0.32em">650</text></g><text x="4" text-anchor="start" dominant-baseline="hanging" style="font-family: Arial, sans-serif; font-size: 12px; fill: rgb(123, 123, 123); font-weight: bold;">收盤</text></g></g><g id="viz"><g><path d="M23.49206349206349,96.90000000000002C29.36507936507936,96.90000000000002,29.36507936507936,22.80000000000002,35.238095238095234,22.80000000000002C41.11111111111111,22.80000000000002,41.11111111111111,28.500000000000025,46.98412698412698,28.500000000000025C52.857142857142854,28.500000000000025,52.857142857142854,74.10000000000001,58.73015873015873,74.10000000000001C76.34920634920634,74.10000000000001,76.34920634920634,102.60000000000002,93.96825396825396,102.60000000000002C99.84126984126983,102.60000000000002,99.84126984126983,131.1,105.71428571428571,131.1C111.58730158730158,131.1,111.58730158730158,142.5,117.46031746031746,142.5C123.33333333333331,142.5,123.33333333333331,262.2,129.2063492063492,262.2C135.07936507936506,262.2,135.07936507936506,262.2,140.95238095238093,262.2C164.44444444444443,262.2,164.44444444444443,262.2,187.93650793650792,262.2C193.8095238095238,262.2,193.8095238095238,279.3,199.68253968253967,279.3C205.55555555555554,279.3,205.55555555555554,273.59999999999997,211.42857142857142,273.59999999999997C217.3015873015873,273.59999999999997,217.3015873015873,313.5,223.17460317460316,313.5C240.79365079365078,313.5,240.79365079365078,421.8,258.4126984126984,421.8C264.2857142857142,421.8,264.2857142857142,495.9,270.1587301587301,495.9C276.031746031746,495.9,276.031746031746,467.40000000000003,281.90476190476187,467.40000000000003C287.7777777777777,467.40000000000003,287.7777777777777,359.1,293.6507936507936,359.1C299.5238095238095,359.1,299.5238095238095,427.5,305.39682539682536,427.5C323.015873015873,427.5,323.015873015873,444.6,340.6349206349206,444.6C346.5079365079365,444.6,346.5079365079365,524.4,352.38095238095235,524.4C358.2539682539682,524.4,358.2539682539682,524.4,364.1269841269841,524.4C370,524.4,370,387.59999999999997,375.87301587301585,387.59999999999997C381.74603174603175,387.59999999999997,381.74603174603175,393.29999999999995,387.61904761904765,393.29999999999995C405.23809523809524,393.29999999999995,405.23809523809524,364.8,422.85714285714283,364.8C428.73015873015873,364.8,428.73015873015873,381.9,434.60317460317464,381.9C440.4761904761905,381.9,440.4761904761905,342,446.3492063492063,342C452.22222222222223,342,452.22222222222223,336.30000000000007,458.09523809523813,336.30000000000007C463.968253968254,336.30000000000007,463.968253968254,296.40000000000003,469.8412698412698,296.40000000000003C487.46031746031747,296.40000000000003,487.46031746031747,376.19999999999993,505.0793650793651,376.19999999999993C510.95238095238096,376.19999999999993,510.95238095238096,347.7,516.8253968253968,347.7C522.6984126984127,347.7,522.6984126984127,285,528.5714285714286,285C534.4444444444443,285,534.4444444444443,302.1,540.3174603174602,302.1C546.1904761904761,302.1,546.1904761904761,347.7,552.063492063492,347.7C581.4285714285713,347.7,581.4285714285713,410.4,610.7936507936507,410.4C616.6666666666666,410.4,616.6666666666666,478.79999999999995,622.5396825396825,478.79999999999995C628.4126984126983,478.79999999999995,628.4126984126983,473.09999999999997,634.2857142857142,473.09999999999997C651.9047619047619,473.09999999999997,651.9047619047619,524.4,669.5238095238095,524.4C675.3968253968253,524.4,675.3968253968253,530.0999999999999,681.2698412698412,530.0999999999999C687.1428571428571,530.0999999999999,687.1428571428571,438.90000000000003,693.015873015873,438.90000000000003C698.8888888888889,438.90000000000003,698.8888888888889,438.90000000000003,704.7619047619047,438.90000000000003" stroke="#1f77b4" fill="none"/><text font-family="sans-serif" font-size="10" class="labels" x="35.238095238095234" y="22.80000000000002" dx="0" dy="-4" text-anchor="middle"/></g></g></g><text y="4" x="4" style="font-family: Arial, sans-serif; font-size: 12px; fill: black; font-weight: bold; dominant-baseline: hanging;"/></g><g id="grid"><rect x="0" y="0" width="805" height="600" fill="none" stroke="#ccc"/></g></g></svg>